<svg xmlns="http://www.w3.org/2000/svg" xmlns:xlink="http://www.w3.org/1999/xlink" width="284" zoomAndPan="magnify" viewBox="0 0 212.87999 132.749998" height="177" preserveAspectRatio="xMidYMid meet" version="1.0"><defs><g/><clipPath id="affe20e484"><path d="M 0.140625 0 L 212.621094 0 L 212.621094 132.5 L 0.140625 132.5 Z M 0.140625 0 " clip-rule="nonzero"/></clipPath><clipPath id="5374e76103"><path d="M 37 84 L 61 84 L 61 107.90625 L 37 107.90625 Z M 37 84 " clip-rule="nonzero"/></clipPath><clipPath id="e15a802ab4"><path d="M 12 75 L 39.691406 75 L 39.691406 84.726562 L 12 84.726562 Z M 12 75 " clip-rule="nonzero"/></clipPath><clipPath id="6ce5a357a6"><path d="M 12 61.519531 L 39.691406 61.519531 L 39.691406 75 L 12 75 Z M 12 61.519531 " clip-rule="nonzero"/></clipPath></defs><g clip-path="url(#affe20e484)"><path fill="#ffffff" d="M 0.140625 0 L 212.738281 0 L 212.738281 132.5 L 0.140625 132.5 Z M 0.140625 0 " fill-opacity="1" fill-rule="nonzero"/><path fill="#ffffff" d="M 0.140625 0 L 212.738281 0 L 212.738281 132.5 L 0.140625 132.5 Z M 0.140625 0 " fill-opacity="1" fill-rule="nonzero"/></g><path fill="#004aad" d="M 26.308594 95.757812 C 25.847656 95.757812 25.390625 95.742188 24.929688 95.714844 C 24.472656 95.6875 24.015625 95.644531 23.558594 95.589844 C 23.101562 95.53125 22.648438 95.460938 22.195312 95.378906 C 21.746094 95.292969 21.296875 95.195312 20.851562 95.085938 C 20.40625 94.972656 19.960938 94.847656 19.523438 94.710938 C 19.085938 94.570312 18.652344 94.421875 18.222656 94.253906 C 17.796875 94.089844 17.371094 93.910156 16.953125 93.71875 C 16.535156 93.527344 16.125 93.324219 15.71875 93.109375 C 15.3125 92.890625 14.914062 92.664062 14.523438 92.421875 C 14.132812 92.179688 13.75 91.929688 13.375 91.664062 C 13 91.398438 12.628906 91.125 12.273438 90.835938 C 11.914062 90.550781 11.5625 90.253906 11.222656 89.945312 C 10.882812 89.636719 10.550781 89.316406 10.230469 88.988281 C 9.910156 88.660156 9.597656 88.320312 9.296875 87.972656 C 9 87.625 8.710938 87.269531 8.429688 86.902344 C 8.152344 86.535156 7.886719 86.164062 7.628906 85.78125 C 7.375 85.398438 7.132812 85.007812 6.898438 84.613281 C 6.667969 84.214844 6.449219 83.8125 6.242188 83.402344 C 6.035156 82.992188 5.84375 82.574219 5.660156 82.152344 C 5.480469 81.730469 5.3125 81.300781 5.15625 80.871094 C 5.003906 80.4375 4.859375 80 4.734375 79.558594 C 4.605469 79.117188 4.492188 78.671875 4.390625 78.222656 C 4.289062 77.777344 4.203125 77.324219 4.128906 76.871094 C 4.054688 76.417969 3.996094 75.960938 3.953125 75.503906 C 3.90625 75.046875 3.875 74.589844 3.859375 74.128906 C 3.84375 73.671875 3.839844 73.210938 3.851562 72.753906 C 3.863281 72.292969 3.886719 71.835938 3.925781 71.375 C 3.964844 70.917969 4.019531 70.460938 4.085938 70.007812 C 4.15625 69.554688 4.234375 69.101562 4.332031 68.652344 C 4.425781 68.203125 4.535156 67.757812 4.65625 67.3125 C 4.78125 66.871094 4.917969 66.433594 5.066406 65.996094 C 5.214844 65.5625 5.378906 65.132812 5.554688 64.707031 C 5.730469 64.285156 5.917969 63.867188 6.121094 63.453125 C 6.324219 63.039062 6.535156 62.632812 6.761719 62.234375 C 6.988281 61.832031 7.226562 61.441406 7.480469 61.054688 C 7.730469 60.671875 7.992188 60.292969 8.265625 59.925781 C 8.539062 59.554688 8.824219 59.195312 9.121094 58.84375 C 9.417969 58.492188 9.722656 58.148438 10.039062 57.816406 C 10.355469 57.484375 10.683594 57.160156 11.019531 56.847656 C 11.355469 56.535156 11.703125 56.234375 12.058594 55.941406 C 12.414062 55.652344 12.777344 55.371094 13.148438 55.101562 C 13.523438 54.832031 13.902344 54.574219 14.289062 54.332031 C 14.679688 54.085938 15.074219 53.851562 15.476562 53.628906 C 15.878906 53.410156 16.289062 53.199219 16.703125 53.003906 C 17.121094 52.808594 17.539062 52.625 17.96875 52.453125 C 18.394531 52.28125 18.824219 52.125 19.261719 51.980469 C 19.699219 51.835938 20.140625 51.707031 20.582031 51.589844 C 21.027344 51.472656 21.476562 51.371094 21.925781 51.28125 C 22.375 51.191406 22.828125 51.117188 23.285156 51.054688 C 23.742188 50.992188 24.199219 50.945312 24.65625 50.910156 C 25.113281 50.878906 25.574219 50.859375 26.03125 50.851562 C 26.492188 50.847656 26.949219 50.855469 27.410156 50.878906 C 27.867188 50.902344 28.328125 50.9375 28.785156 50.988281 C 29.238281 51.039062 29.695312 51.105469 30.148438 51.183594 C 30.601562 51.261719 31.050781 51.355469 31.496094 51.460938 C 31.945312 51.566406 32.386719 51.6875 32.828125 51.820312 C 33.265625 51.953125 33.703125 52.101562 34.132812 52.261719 C 34.5625 52.421875 34.988281 52.597656 35.410156 52.78125 C 35.828125 52.96875 36.242188 53.167969 36.648438 53.378906 C 37.058594 53.59375 37.457031 53.816406 37.851562 54.050781 C 38.246094 54.289062 38.632812 54.539062 39.011719 54.796875 C 39.390625 55.058594 39.761719 55.328125 40.121094 55.613281 C 40.484375 55.894531 40.839844 56.1875 41.183594 56.492188 C 41.527344 56.796875 41.859375 57.113281 42.183594 57.4375 C 42.964844 58.21875 43.6875 59.050781 44.34375 59.9375 C 45.003906 60.824219 45.59375 61.753906 46.113281 62.730469 C 46.632812 63.703125 47.082031 64.710938 47.453125 65.75 C 47.824219 66.789062 48.121094 67.851562 48.335938 68.933594 C 48.550781 70.015625 48.6875 71.109375 48.742188 72.210938 C 48.792969 73.3125 48.769531 74.414062 48.660156 75.515625 C 48.550781 76.613281 48.363281 77.699219 48.09375 78.769531 C 47.828125 79.839844 47.480469 80.886719 47.058594 81.90625 C 46.636719 82.925781 46.140625 83.910156 45.574219 84.855469 C 45.003906 85.804688 44.371094 86.703125 43.667969 87.558594 C 42.96875 88.410156 42.207031 89.207031 41.390625 89.949219 C 40.570312 90.691406 39.703125 91.367188 38.785156 91.980469 C 37.867188 92.59375 36.910156 93.136719 35.910156 93.605469 C 34.910156 94.078125 33.882812 94.476562 32.828125 94.792969 C 31.769531 95.113281 30.695312 95.355469 29.601562 95.515625 C 28.511719 95.675781 27.410156 95.757812 26.308594 95.757812 Z M 26.308594 55.796875 C 25.636719 55.796875 24.96875 55.832031 24.304688 55.90625 C 23.636719 55.984375 22.980469 56.097656 22.328125 56.246094 C 21.675781 56.398438 21.03125 56.585938 20.402344 56.808594 C 19.769531 57.035156 19.152344 57.292969 18.550781 57.589844 C 17.949219 57.882812 17.367188 58.210938 16.804688 58.574219 C 16.238281 58.9375 15.699219 59.328125 15.179688 59.753906 C 14.660156 60.175781 14.167969 60.628906 13.703125 61.109375 C 13.234375 61.589844 12.796875 62.097656 12.390625 62.628906 C 11.980469 63.160156 11.601562 63.710938 11.257812 64.285156 C 10.914062 64.859375 10.601562 65.449219 10.324219 66.0625 C 10.046875 66.671875 9.804688 67.292969 9.597656 67.929688 C 9.390625 68.570312 9.222656 69.214844 9.09375 69.875 C 8.960938 70.53125 8.867188 71.191406 8.8125 71.859375 C 8.753906 72.527344 8.738281 73.195312 8.757812 73.867188 C 8.78125 74.535156 8.839844 75.203125 8.9375 75.863281 C 9.035156 76.527344 9.167969 77.183594 9.34375 77.828125 C 9.515625 78.476562 9.722656 79.113281 9.96875 79.734375 C 10.214844 80.359375 10.496094 80.964844 10.808594 81.558594 C 11.125 82.148438 11.472656 82.71875 11.855469 83.269531 C 12.234375 83.824219 12.644531 84.351562 13.085938 84.855469 C 13.527344 85.359375 13.996094 85.835938 14.492188 86.285156 C 14.988281 86.734375 15.507812 87.15625 16.054688 87.546875 C 16.597656 87.9375 17.164062 88.296875 17.746094 88.621094 C 18.332031 88.949219 18.933594 89.238281 19.554688 89.496094 C 20.171875 89.753906 20.804688 89.972656 21.449219 90.15625 C 22.09375 90.34375 22.746094 90.488281 23.40625 90.597656 C 24.066406 90.707031 24.730469 90.777344 25.402344 90.8125 C 26.070312 90.84375 26.738281 90.839844 27.40625 90.796875 C 28.074219 90.753906 28.738281 90.671875 29.398438 90.550781 C 30.058594 90.433594 30.707031 90.273438 31.347656 90.082031 C 31.992188 89.886719 32.617188 89.65625 33.234375 89.390625 C 33.847656 89.125 34.445312 88.824219 35.023438 88.488281 C 35.605469 88.152344 36.164062 87.785156 36.703125 87.386719 C 37.242188 86.988281 37.753906 86.558594 38.242188 86.101562 C 38.734375 85.644531 39.195312 85.160156 39.628906 84.648438 C 40.0625 84.136719 40.464844 83.605469 40.835938 83.046875 C 41.207031 82.488281 41.546875 81.914062 41.851562 81.316406 C 42.160156 80.722656 42.429688 80.109375 42.664062 79.484375 C 42.902344 78.855469 43.101562 78.21875 43.261719 77.566406 C 43.425781 76.917969 43.550781 76.261719 43.636719 75.597656 C 43.726562 74.929688 43.773438 74.265625 43.785156 73.59375 C 43.796875 72.925781 43.765625 72.257812 43.703125 71.589844 C 43.636719 70.921875 43.53125 70.261719 43.390625 69.609375 C 43.246094 68.953125 43.070312 68.308594 42.851562 67.675781 C 42.636719 67.039062 42.386719 66.421875 42.097656 65.816406 C 41.8125 65.210938 41.492188 64.621094 41.136719 64.054688 C 40.785156 63.484375 40.398438 62.9375 39.980469 62.414062 C 39.5625 61.890625 39.117188 61.390625 38.644531 60.917969 C 37.007812 59.28125 35.121094 58.019531 32.984375 57.132812 C 30.847656 56.246094 28.621094 55.800781 26.308594 55.796875 Z M 26.308594 55.796875 " fill-opacity="1" fill-rule="nonzero"/><g clip-path="url(#5374e76103)"><path fill="#004aad" d="M 58.136719 107.613281 C 57.457031 107.609375 56.875 107.367188 56.398438 106.882812 L 38.695312 89.191406 C 38.460938 88.960938 38.285156 88.695312 38.160156 88.390625 C 38.035156 88.089844 37.972656 87.773438 37.972656 87.449219 C 37.972656 87.121094 38.035156 86.804688 38.160156 86.503906 C 38.285156 86.199219 38.460938 85.933594 38.695312 85.703125 C 38.925781 85.46875 39.191406 85.292969 39.496094 85.167969 C 39.796875 85.042969 40.113281 84.980469 40.441406 84.980469 C 40.765625 84.980469 41.082031 85.042969 41.382812 85.167969 C 41.6875 85.292969 41.953125 85.46875 42.183594 85.703125 L 59.875 103.40625 C 60.226562 103.757812 60.449219 104.179688 60.546875 104.667969 C 60.644531 105.152344 60.597656 105.628906 60.40625 106.085938 C 60.214844 106.546875 59.914062 106.914062 59.503906 107.191406 C 59.089844 107.46875 58.632812 107.609375 58.136719 107.613281 Z M 58.136719 107.613281 " fill-opacity="1" fill-rule="nonzero"/></g><path fill="#004aad" d="M 27.308594 75.542969 L 27.308594 74.921875 C 27.308594 74.167969 26.699219 73.554688 25.941406 73.554688 C 25.1875 73.554688 24.574219 74.167969 24.574219 74.921875 L 24.574219 75.542969 C 24.574219 76.296875 25.1875 76.910156 25.941406 76.910156 C 26.699219 76.910156 27.308594 76.296875 27.308594 75.542969 Z M 27.308594 75.542969 " fill-opacity="1" fill-rule="nonzero"/><g clip-path="url(#e15a802ab4)"><path fill="#004aad" d="M 28.25 76.296875 C 27.945312 77.289062 27.03125 78.019531 25.941406 78.019531 C 24.855469 78.019531 23.941406 77.289062 23.636719 76.296875 L 14.21875 76.296875 C 13.625 76.296875 13.0625 76.160156 12.558594 75.921875 L 12.558594 82.175781 C 12.558594 83.394531 13.558594 84.394531 14.78125 84.394531 L 37.105469 84.394531 C 38.328125 84.394531 39.324219 83.394531 39.324219 82.175781 L 39.324219 75.921875 C 38.820312 76.160156 38.261719 76.300781 37.667969 76.300781 L 28.25 76.300781 Z M 28.25 76.296875 " fill-opacity="1" fill-rule="nonzero"/></g><g clip-path="url(#6ce5a357a6)"><path fill="#004aad" d="M 37.574219 65.070312 L 32.246094 65.070312 C 31.921875 63.058594 30.179688 61.511719 28.078125 61.511719 L 23.808594 61.511719 C 21.707031 61.511719 19.964844 63.058594 19.640625 65.070312 L 14.3125 65.070312 C 13.039062 65.070312 12 66.070312 12 67.289062 L 12 72.414062 C 12 73.640625 12.992188 74.632812 14.21875 74.632812 L 23.53125 74.632812 C 23.566406 73.996094 23.839844 73.421875 24.273438 73.007812 C 24.285156 72.992188 24.300781 72.984375 24.316406 72.972656 C 24.410156 72.882812 24.511719 72.800781 24.621094 72.726562 C 24.660156 72.703125 24.703125 72.683594 24.742188 72.660156 C 24.832031 72.609375 24.921875 72.554688 25.019531 72.515625 C 25.097656 72.484375 25.179688 72.464844 25.257812 72.441406 C 25.328125 72.421875 25.390625 72.394531 25.464844 72.378906 C 25.617188 72.347656 25.777344 72.332031 25.941406 72.332031 C 26.105469 72.332031 26.265625 72.347656 26.421875 72.378906 C 26.492188 72.394531 26.558594 72.421875 26.628906 72.441406 C 26.707031 72.464844 26.789062 72.484375 26.867188 72.515625 C 26.960938 72.554688 27.050781 72.609375 27.140625 72.660156 C 27.179688 72.683594 27.226562 72.703125 27.265625 72.726562 C 27.375 72.800781 27.472656 72.882812 27.570312 72.972656 C 27.582031 72.984375 27.597656 72.992188 27.613281 73.007812 C 28.046875 73.421875 28.320312 73.996094 28.351562 74.636719 L 37.664062 74.636719 C 38.890625 74.636719 39.886719 73.640625 39.886719 72.414062 L 39.886719 67.289062 C 39.886719 66.070312 38.84375 65.070312 37.574219 65.070312 Z M 21.777344 65.070312 C 22.0625 64.214844 22.859375 63.589844 23.808594 63.589844 L 28.078125 63.589844 C 29.027344 63.589844 29.824219 64.214844 30.105469 65.070312 Z M 21.777344 65.070312 " fill-opacity="1" fill-rule="nonzero"/></g><g fill="#004aad" fill-opacity="1"><g transform="translate(42.482545, 82.315541)"><g/></g></g><g fill="#004aad" fill-opacity="1"><g transform="translate(49.95675, 82.315541)"><g/></g></g><g fill="#004aad" fill-opacity="1"><g transform="translate(49.95675, 82.315541)"><g><path d="M 9.515625 -19.96875 C 9.578125 -19.96875 9.609375 -19.898438 9.609375 -19.765625 C 9.609375 -19.640625 9.578125 -19.578125 9.515625 -19.578125 C 8.960938 -19.578125 8.550781 -19.507812 8.28125 -19.375 C 8.019531 -19.25 7.847656 -19.03125 7.765625 -18.71875 C 7.679688 -18.414062 7.640625 -17.945312 7.640625 -17.3125 L 7.640625 0.125 C 7.640625 2.507812 7.046875 4.375 5.859375 5.71875 C 4.679688 7.0625 3.035156 7.734375 0.921875 7.734375 C 0.117188 7.734375 -0.535156 7.5625 -1.046875 7.21875 C -1.566406 6.875 -1.828125 6.40625 -1.828125 5.8125 C -1.828125 5.382812 -1.6875 5.003906 -1.40625 4.671875 C -1.125 4.347656 -0.707031 4.1875 -0.15625 4.1875 C 0.375 4.1875 0.78125 4.34375 1.0625 4.65625 C 1.351562 4.976562 1.617188 5.425781 1.859375 6 C 1.984375 6.34375 2.109375 6.601562 2.234375 6.78125 C 2.359375 6.96875 2.519531 7.0625 2.71875 7.0625 C 3.164062 7.0625 3.492188 6.695312 3.703125 5.96875 C 3.921875 5.25 4.03125 4.046875 4.03125 2.359375 L 4.03125 -17.375 C 4.03125 -18.007812 3.957031 -18.472656 3.8125 -18.765625 C 3.675781 -19.066406 3.425781 -19.273438 3.0625 -19.390625 C 2.695312 -19.515625 2.125 -19.578125 1.34375 -19.578125 C 1.300781 -19.578125 1.28125 -19.640625 1.28125 -19.765625 C 1.28125 -19.898438 1.300781 -19.96875 1.34375 -19.96875 L 3.328125 -19.921875 C 4.347656 -19.878906 5.164062 -19.859375 5.78125 -19.859375 C 6.375 -19.859375 7.117188 -19.878906 8.015625 -19.921875 Z M 9.515625 -19.96875 "/></g></g></g><g fill="#004aad" fill-opacity="1"><g transform="translate(60.206871, 82.315541)"><g><path d="M 7.5625 0.421875 C 6.25 0.421875 5.097656 0.117188 4.109375 -0.484375 C 3.117188 -1.097656 2.351562 -1.921875 1.8125 -2.953125 C 1.28125 -3.984375 1.015625 -5.109375 1.015625 -6.328125 C 1.015625 -7.710938 1.363281 -8.890625 2.0625 -9.859375 C 2.769531 -10.828125 3.664062 -11.550781 4.75 -12.03125 C 5.84375 -12.507812 6.960938 -12.75 8.109375 -12.75 C 9.429688 -12.75 10.582031 -12.4375 11.5625 -11.8125 C 12.539062 -11.195312 13.289062 -10.382812 13.8125 -9.375 C 14.332031 -8.363281 14.59375 -7.28125 14.59375 -6.125 C 14.59375 -4.851562 14.269531 -3.722656 13.625 -2.734375 C 12.988281 -1.742188 12.132812 -0.96875 11.0625 -0.40625 C 9.988281 0.144531 8.820312 0.421875 7.5625 0.421875 Z M 8.53125 -0.25 C 9.351562 -0.25 9.984375 -0.660156 10.421875 -1.484375 C 10.859375 -2.304688 11.078125 -3.484375 11.078125 -5.015625 C 11.078125 -6.503906 10.882812 -7.78125 10.5 -8.84375 C 10.125 -9.90625 9.625 -10.707031 9 -11.25 C 8.382812 -11.800781 7.726562 -12.078125 7.03125 -12.078125 C 5.320312 -12.078125 4.46875 -10.550781 4.46875 -7.5 C 4.46875 -6.070312 4.648438 -4.8125 5.015625 -3.71875 C 5.378906 -2.625 5.867188 -1.769531 6.484375 -1.15625 C 7.097656 -0.550781 7.78125 -0.25 8.53125 -0.25 Z M 8.53125 -0.25 "/></g></g></g><g fill="#004aad" fill-opacity="1"><g transform="translate(75.821617, 82.315541)"><g><path d="M 10.15625 -12.75 C 11.113281 -12.75 11.992188 -12.523438 12.796875 -12.078125 C 13.609375 -11.628906 14.253906 -10.957031 14.734375 -10.0625 C 15.210938 -9.164062 15.453125 -8.078125 15.453125 -6.796875 C 15.453125 -5.265625 15.128906 -3.957031 14.484375 -2.875 C 13.835938 -1.789062 12.984375 -0.96875 11.921875 -0.40625 C 10.867188 0.144531 9.75 0.421875 8.5625 0.421875 C 7.75 0.421875 6.953125 0.289062 6.171875 0.03125 C 5.398438 -0.21875 4.695312 -0.585938 4.0625 -1.078125 L 1.15625 0.21875 L 1.078125 0.21875 C 0.992188 0.21875 0.941406 0.175781 0.921875 0.09375 C 0.898438 0.0078125 0.929688 -0.0390625 1.015625 -0.0625 C 1.523438 -0.363281 1.914062 -0.773438 2.1875 -1.296875 C 2.457031 -1.816406 2.59375 -2.484375 2.59375 -3.296875 L 2.59375 -18.8125 C 2.59375 -19.550781 2.519531 -20.082031 2.375 -20.40625 C 2.238281 -20.726562 1.988281 -20.890625 1.625 -20.890625 C 1.351562 -20.890625 0.960938 -20.769531 0.453125 -20.53125 L 0.421875 -20.53125 C 0.328125 -20.53125 0.257812 -20.585938 0.21875 -20.703125 C 0.175781 -20.828125 0.175781 -20.898438 0.21875 -20.921875 L 4.890625 -23.125 L 5.046875 -23.15625 C 5.148438 -23.15625 5.257812 -23.109375 5.375 -23.015625 C 5.5 -22.921875 5.5625 -22.828125 5.5625 -22.734375 L 5.5625 -10.609375 C 6.257812 -11.265625 6.96875 -11.785156 7.6875 -12.171875 C 8.414062 -12.554688 9.238281 -12.75 10.15625 -12.75 Z M 9.328125 -0.21875 C 10.242188 -0.21875 10.945312 -0.6875 11.4375 -1.625 C 11.925781 -2.5625 12.171875 -3.875 12.171875 -5.5625 C 12.171875 -7.40625 11.859375 -8.78125 11.234375 -9.6875 C 10.617188 -10.59375 9.757812 -11.046875 8.65625 -11.046875 C 7.65625 -11.046875 6.625 -10.6875 5.5625 -9.96875 L 5.5625 -5.265625 C 5.5625 -4.097656 5.757812 -3.132812 6.15625 -2.375 C 6.5625 -1.625 7.050781 -1.078125 7.625 -0.734375 C 8.207031 -0.390625 8.773438 -0.21875 9.328125 -0.21875 Z M 9.328125 -0.21875 "/></g></g></g><g fill="#004aad" fill-opacity="1"><g transform="translate(92.298528, 82.315541)"><g><path d="M 3.765625 -10.796875 C 3.765625 -10.179688 3.984375 -9.648438 4.421875 -9.203125 C 4.859375 -8.753906 5.492188 -8.285156 6.328125 -7.796875 C 7.128906 -7.328125 7.726562 -6.957031 8.125 -6.6875 C 8.519531 -6.425781 8.875 -6.054688 9.1875 -5.578125 C 9.507812 -5.097656 9.671875 -4.515625 9.671875 -3.828125 C 9.671875 -3.109375 9.488281 -2.425781 9.125 -1.78125 C 8.769531 -1.144531 8.226562 -0.628906 7.5 -0.234375 C 6.78125 0.148438 5.921875 0.34375 4.921875 0.34375 C 3.742188 0.34375 2.632812 0.0546875 1.59375 -0.515625 C 1.46875 -0.640625 1.40625 -0.765625 1.40625 -0.890625 L 1.34375 -4.0625 C 1.34375 -4.125 1.398438 -4.160156 1.515625 -4.171875 C 1.628906 -4.179688 1.695312 -4.164062 1.71875 -4.125 C 2.0625 -3.050781 2.625 -2.140625 3.40625 -1.390625 C 4.195312 -0.648438 5 -0.28125 5.8125 -0.28125 C 6.257812 -0.28125 6.613281 -0.421875 6.875 -0.703125 C 7.144531 -0.984375 7.28125 -1.390625 7.28125 -1.921875 C 7.28125 -2.703125 7.054688 -3.320312 6.609375 -3.78125 C 6.160156 -4.238281 5.5 -4.710938 4.625 -5.203125 C 3.882812 -5.609375 3.320312 -5.9375 2.9375 -6.1875 C 2.550781 -6.445312 2.207031 -6.8125 1.90625 -7.28125 C 1.613281 -7.75 1.46875 -8.320312 1.46875 -9 C 1.46875 -10.257812 1.914062 -11.179688 2.8125 -11.765625 C 3.707031 -12.347656 4.800781 -12.640625 6.09375 -12.640625 C 6.582031 -12.640625 7.023438 -12.609375 7.421875 -12.546875 C 7.816406 -12.484375 8.257812 -12.359375 8.75 -12.171875 C 8.9375 -12.109375 9.03125 -11.988281 9.03125 -11.8125 C 9.03125 -11.28125 9.019531 -10.867188 9 -10.578125 L 8.96875 -8.96875 C 8.96875 -8.90625 8.90625 -8.875 8.78125 -8.875 C 8.65625 -8.875 8.59375 -8.90625 8.59375 -8.96875 C 8.59375 -9.375 8.421875 -9.816406 8.078125 -10.296875 C 7.734375 -10.773438 7.289062 -11.1875 6.75 -11.53125 C 6.207031 -11.875 5.648438 -12.046875 5.078125 -12.046875 C 4.203125 -12.046875 3.765625 -11.628906 3.765625 -10.796875 Z M 3.765625 -10.796875 "/></g></g></g><g fill="#004aad" fill-opacity="1"><g transform="translate(103.059615, 82.315541)"><g><path d="M 15.234375 -15.421875 C 15.234375 -15.378906 15.175781 -15.347656 15.0625 -15.328125 C 14.945312 -15.304688 14.875 -15.328125 14.84375 -15.390625 C 14.507812 -16.628906 13.9375 -17.546875 13.125 -18.140625 C 12.3125 -18.734375 11.25 -19.03125 9.9375 -19.03125 L 8.96875 -19.03125 C 8.332031 -19.03125 7.863281 -18.890625 7.5625 -18.609375 C 7.269531 -18.335938 7.125 -17.914062 7.125 -17.34375 L 7.125 -10.4375 L 9.421875 -10.4375 C 10.660156 -10.4375 11.601562 -10.65625 12.25 -11.09375 C 12.894531 -11.53125 13.21875 -12.132812 13.21875 -12.90625 C 13.21875 -12.945312 13.28125 -12.96875 13.40625 -12.96875 C 13.539062 -12.96875 13.609375 -12.945312 13.609375 -12.90625 L 13.578125 -10 C 13.578125 -9.3125 13.585938 -8.800781 13.609375 -8.46875 L 13.640625 -6.765625 C 13.640625 -6.703125 13.570312 -6.671875 13.4375 -6.671875 C 13.3125 -6.671875 13.25 -6.703125 13.25 -6.765625 C 13.25 -7.617188 12.910156 -8.296875 12.234375 -8.796875 C 11.566406 -9.296875 10.617188 -9.546875 9.390625 -9.546875 L 7.125 -9.546875 L 7.125 -2.71875 C 7.125 -2.050781 7.207031 -1.554688 7.375 -1.234375 C 7.550781 -0.921875 7.867188 -0.703125 8.328125 -0.578125 C 8.796875 -0.453125 9.535156 -0.390625 10.546875 -0.390625 C 10.585938 -0.390625 10.609375 -0.320312 10.609375 -0.1875 C 10.609375 -0.0625 10.585938 0 10.546875 0 C 9.671875 0 8.988281 -0.0078125 8.5 -0.03125 L 5.234375 -0.0625 L 2.84375 -0.03125 C 2.414062 -0.0078125 1.828125 0 1.078125 0 C 1.015625 0 0.984375 -0.0625 0.984375 -0.1875 C 0.984375 -0.320312 1.015625 -0.390625 1.078125 -0.390625 C 1.828125 -0.390625 2.367188 -0.441406 2.703125 -0.546875 C 3.046875 -0.648438 3.273438 -0.851562 3.390625 -1.15625 C 3.515625 -1.46875 3.578125 -1.945312 3.578125 -2.59375 L 3.578125 -17.375 C 3.578125 -18.007812 3.519531 -18.472656 3.40625 -18.765625 C 3.300781 -19.066406 3.085938 -19.273438 2.765625 -19.390625 C 2.453125 -19.515625 1.96875 -19.578125 1.3125 -19.578125 C 1.25 -19.578125 1.21875 -19.640625 1.21875 -19.765625 C 1.21875 -19.898438 1.25 -19.96875 1.3125 -19.96875 L 14.84375 -19.96875 C 15.0625 -19.96875 15.171875 -19.867188 15.171875 -19.671875 Z M 15.234375 -15.421875 "/></g></g></g><g fill="#004aad" fill-opacity="1"><g transform="translate(119.728117, 82.315541)"><g><path d="M 4.3125 -15.8125 C 3.695312 -15.8125 3.21875 -15.976562 2.875 -16.3125 C 2.53125 -16.65625 2.359375 -17.132812 2.359375 -17.75 C 2.359375 -18.3125 2.535156 -18.753906 2.890625 -19.078125 C 3.242188 -19.410156 3.71875 -19.578125 4.3125 -19.578125 C 4.90625 -19.578125 5.359375 -19.414062 5.671875 -19.09375 C 5.992188 -18.78125 6.15625 -18.332031 6.15625 -17.75 C 6.15625 -17.132812 5.992188 -16.65625 5.671875 -16.3125 C 5.359375 -15.976562 4.90625 -15.8125 4.3125 -15.8125 Z M 1.25 0 C 1.1875 0 1.15625 -0.0625 1.15625 -0.1875 C 1.15625 -0.320312 1.1875 -0.390625 1.25 -0.390625 C 1.90625 -0.390625 2.347656 -0.539062 2.578125 -0.84375 C 2.816406 -1.15625 2.9375 -1.738281 2.9375 -2.59375 L 2.9375 -8.296875 C 2.9375 -9.023438 2.859375 -9.546875 2.703125 -9.859375 C 2.554688 -10.179688 2.316406 -10.34375 1.984375 -10.34375 C 1.703125 -10.34375 1.304688 -10.226562 0.796875 -10 L 0.765625 -10 C 0.679688 -10 0.617188 -10.054688 0.578125 -10.171875 C 0.535156 -10.285156 0.546875 -10.351562 0.609375 -10.375 L 5.421875 -12.609375 L 5.53125 -12.640625 C 5.632812 -12.640625 5.738281 -12.585938 5.84375 -12.484375 C 5.945312 -12.378906 6 -12.285156 6 -12.203125 L 6 -11.5 C 5.957031 -10.644531 5.9375 -9.601562 5.9375 -8.375 L 5.9375 -2.59375 C 5.9375 -1.738281 6.054688 -1.15625 6.296875 -0.84375 C 6.546875 -0.539062 7.003906 -0.390625 7.671875 -0.390625 C 7.734375 -0.390625 7.765625 -0.320312 7.765625 -0.1875 C 7.765625 -0.0625 7.734375 0 7.671875 0 C 7.109375 0 6.671875 -0.0078125 6.359375 -0.03125 L 4.4375 -0.0625 L 2.5625 -0.03125 C 2.238281 -0.0078125 1.800781 0 1.25 0 Z M 1.25 0 "/></g></g></g><g fill="#004aad" fill-opacity="1"><g transform="translate(128.126238, 82.315541)"><g><path d="M 16.25 -0.390625 C 16.320312 -0.390625 16.359375 -0.320312 16.359375 -0.1875 C 16.359375 -0.0625 16.320312 0 16.25 0 C 15.695312 0 15.265625 -0.0078125 14.953125 -0.03125 L 13.03125 -0.0625 L 11.171875 -0.03125 C 10.835938 -0.0078125 10.394531 0 9.84375 0 C 9.769531 0 9.734375 -0.0625 9.734375 -0.1875 C 9.734375 -0.320312 9.769531 -0.390625 9.84375 -0.390625 C 10.5 -0.390625 10.941406 -0.539062 11.171875 -0.84375 C 11.410156 -1.15625 11.53125 -1.738281 11.53125 -2.59375 L 11.53125 -7.1875 C 11.53125 -8.332031 11.320312 -9.179688 10.90625 -9.734375 C 10.488281 -10.296875 9.832031 -10.578125 8.9375 -10.578125 C 8.425781 -10.578125 7.898438 -10.46875 7.359375 -10.25 C 6.816406 -10.039062 6.34375 -9.753906 5.9375 -9.390625 L 5.9375 -2.59375 C 5.9375 -1.738281 6.054688 -1.15625 6.296875 -0.84375 C 6.546875 -0.539062 7.003906 -0.390625 7.671875 -0.390625 C 7.734375 -0.390625 7.765625 -0.320312 7.765625 -0.1875 C 7.765625 -0.0625 7.734375 0 7.671875 0 C 7.109375 0 6.671875 -0.0078125 6.359375 -0.03125 L 4.4375 -0.0625 L 2.5625 -0.03125 C 2.238281 -0.0078125 1.800781 0 1.25 0 C 1.1875 0 1.15625 -0.0625 1.15625 -0.1875 C 1.15625 -0.320312 1.1875 -0.390625 1.25 -0.390625 C 1.90625 -0.390625 2.347656 -0.539062 2.578125 -0.84375 C 2.816406 -1.15625 2.9375 -1.738281 2.9375 -2.59375 L 2.9375 -8.59375 C 2.9375 -9.25 2.851562 -9.726562 2.6875 -10.03125 C 2.53125 -10.34375 2.285156 -10.5 1.953125 -10.5 C 1.585938 -10.5 1.078125 -10.351562 0.421875 -10.0625 L 0.34375 -10.0625 C 0.28125 -10.0625 0.234375 -10.113281 0.203125 -10.21875 C 0.171875 -10.320312 0.175781 -10.382812 0.21875 -10.40625 L 4.65625 -12.578125 C 4.789062 -12.617188 4.867188 -12.640625 4.890625 -12.640625 C 5.117188 -12.640625 5.335938 -12.410156 5.546875 -11.953125 C 5.765625 -11.503906 5.894531 -10.882812 5.9375 -10.09375 C 7.40625 -11.84375 9.023438 -12.71875 10.796875 -12.71875 C 11.941406 -12.71875 12.847656 -12.347656 13.515625 -11.609375 C 14.191406 -10.867188 14.53125 -9.90625 14.53125 -8.71875 L 14.53125 -2.59375 C 14.53125 -1.738281 14.648438 -1.15625 14.890625 -0.84375 C 15.140625 -0.539062 15.59375 -0.390625 16.25 -0.390625 Z M 16.25 -0.390625 "/></g></g></g><g fill="#004aad" fill-opacity="1"><g transform="translate(144.922467, 82.315541)"><g><path d="M 16.0625 -2.078125 C 16.125 -2.078125 16.179688 -2.019531 16.234375 -1.90625 C 16.285156 -1.800781 16.289062 -1.738281 16.25 -1.71875 L 11.84375 0.421875 L 11.6875 0.453125 C 11.5 0.453125 11.320312 0.25 11.15625 -0.15625 C 11 -0.5625 10.898438 -1.117188 10.859375 -1.828125 C 9.285156 -0.328125 7.675781 0.421875 6.03125 0.421875 C 5.09375 0.421875 4.242188 0.175781 3.484375 -0.3125 C 2.734375 -0.800781 2.132812 -1.519531 1.6875 -2.46875 C 1.238281 -3.414062 1.015625 -4.53125 1.015625 -5.8125 C 1.015625 -7.425781 1.394531 -8.75 2.15625 -9.78125 C 2.914062 -10.820312 3.851562 -11.578125 4.96875 -12.046875 C 6.082031 -12.515625 7.203125 -12.75 8.328125 -12.75 C 9.117188 -12.75 9.953125 -12.617188 10.828125 -12.359375 L 10.828125 -18.8125 C 10.828125 -19.550781 10.753906 -20.082031 10.609375 -20.40625 C 10.472656 -20.726562 10.238281 -20.890625 9.90625 -20.890625 C 9.625 -20.890625 9.226562 -20.769531 8.71875 -20.53125 L 8.6875 -20.53125 C 8.601562 -20.53125 8.535156 -20.585938 8.484375 -20.703125 C 8.429688 -20.828125 8.425781 -20.898438 8.46875 -20.921875 L 13.15625 -23.125 L 13.28125 -23.15625 C 13.394531 -23.15625 13.515625 -23.109375 13.640625 -23.015625 C 13.765625 -22.921875 13.828125 -22.828125 13.828125 -22.734375 L 13.828125 -3.703125 C 13.828125 -2.984375 13.894531 -2.472656 14.03125 -2.171875 C 14.175781 -1.867188 14.40625 -1.71875 14.71875 -1.71875 C 15 -1.71875 15.4375 -1.835938 16.03125 -2.078125 Z M 7.796875 -1.125 C 8.859375 -1.125 9.867188 -1.566406 10.828125 -2.453125 L 10.828125 -10.375 C 10.441406 -10.90625 10.007812 -11.289062 9.53125 -11.53125 C 9.050781 -11.78125 8.492188 -11.90625 7.859375 -11.90625 C 6.703125 -11.90625 5.820312 -11.503906 5.21875 -10.703125 C 4.613281 -9.910156 4.3125 -8.617188 4.3125 -6.828125 C 4.3125 -5.046875 4.628906 -3.648438 5.265625 -2.640625 C 5.910156 -1.628906 6.753906 -1.125 7.796875 -1.125 Z M 7.796875 -1.125 "/></g></g></g><g fill="#004aad" fill-opacity="1"><g transform="translate(161.207787, 82.315541)"><g><path d="M 13.40625 -1.53125 C 13.476562 -1.53125 13.515625 -1.359375 13.515625 -1.015625 C 13.515625 -0.785156 13.492188 -0.5625 13.453125 -0.34375 C 13.421875 -0.132812 13.382812 -0.03125 13.34375 -0.03125 L 11.234375 -0.125 L 11.234375 4.3125 C 11.234375 4.519531 11.148438 4.671875 10.984375 4.765625 L 8.46875 6 C 8.332031 6.039062 8.265625 6.0625 8.265625 6.0625 C 8.203125 6.0625 8.171875 5.976562 8.171875 5.8125 L 8.171875 -0.21875 C 6.898438 -0.238281 4.535156 -0.25 1.078125 -0.25 C 0.972656 -0.25 0.890625 -0.289062 0.828125 -0.375 C 0.765625 -0.46875 0.773438 -0.554688 0.859375 -0.640625 L 10.765625 -12.640625 C 10.804688 -12.691406 10.867188 -12.71875 10.953125 -12.71875 C 11.015625 -12.71875 11.078125 -12.695312 11.140625 -12.65625 C 11.203125 -12.625 11.234375 -12.578125 11.234375 -12.515625 L 11.234375 -1.46875 C 11.660156 -1.46875 12.382812 -1.488281 13.40625 -1.53125 Z M 3 -1.34375 C 5.46875 -1.34375 7.191406 -1.351562 8.171875 -1.375 L 8.171875 -7.828125 L 2.84375 -1.5625 C 2.71875 -1.414062 2.769531 -1.34375 3 -1.34375 Z M 3 -1.34375 "/></g></g></g><g fill="#004aad" fill-opacity="1"><g transform="translate(175.768778, 82.315541)"><g><path d="M 18.234375 -15.875 C 18.234375 -17.019531 17.972656 -17.921875 17.453125 -18.578125 C 16.929688 -19.242188 16.203125 -19.578125 15.265625 -19.578125 C 15.222656 -19.578125 15.203125 -19.640625 15.203125 -19.765625 C 15.203125 -19.898438 15.222656 -19.96875 15.265625 -19.96875 L 16.796875 -19.921875 C 17.609375 -19.878906 18.257812 -19.859375 18.75 -19.859375 C 19.15625 -19.859375 19.738281 -19.878906 20.5 -19.921875 L 21.96875 -19.96875 C 22.007812 -19.96875 22.03125 -19.898438 22.03125 -19.765625 C 22.03125 -19.640625 22.007812 -19.578125 21.96875 -19.578125 C 21.144531 -19.578125 20.5 -19.242188 20.03125 -18.578125 C 19.5625 -17.921875 19.328125 -17.019531 19.328125 -15.875 L 19.328125 -7 C 19.328125 -5.507812 18.992188 -4.195312 18.328125 -3.0625 C 17.671875 -1.9375 16.738281 -1.066406 15.53125 -0.453125 C 14.332031 0.148438 12.945312 0.453125 11.375 0.453125 C 9.789062 0.453125 8.390625 0.15625 7.171875 -0.4375 C 5.960938 -1.039062 5.015625 -1.910156 4.328125 -3.046875 C 3.640625 -4.191406 3.296875 -5.53125 3.296875 -7.0625 L 3.296875 -17.375 C 3.296875 -18.007812 3.234375 -18.472656 3.109375 -18.765625 C 2.992188 -19.066406 2.78125 -19.273438 2.46875 -19.390625 C 2.164062 -19.515625 1.679688 -19.578125 1.015625 -19.578125 C 0.953125 -19.578125 0.921875 -19.640625 0.921875 -19.765625 C 0.921875 -19.898438 0.953125 -19.96875 1.015625 -19.96875 L 2.71875 -19.921875 C 3.695312 -19.878906 4.472656 -19.859375 5.046875 -19.859375 C 5.679688 -19.859375 6.488281 -19.878906 7.46875 -19.921875 L 9.109375 -19.96875 C 9.171875 -19.96875 9.203125 -19.898438 9.203125 -19.765625 C 9.203125 -19.640625 9.171875 -19.578125 9.109375 -19.578125 C 8.441406 -19.578125 7.953125 -19.507812 7.640625 -19.375 C 7.335938 -19.25 7.125 -19.03125 7 -18.71875 C 6.882812 -18.414062 6.828125 -17.945312 6.828125 -17.3125 L 6.828125 -8.171875 C 6.828125 -5.640625 7.328125 -3.765625 8.328125 -2.546875 C 9.335938 -1.335938 10.753906 -0.734375 12.578125 -0.734375 C 14.347656 -0.734375 15.734375 -1.269531 16.734375 -2.34375 C 17.734375 -3.414062 18.234375 -4.957031 18.234375 -6.96875 Z M 18.234375 -15.875 "/></g></g></g><g fill="#004aad" fill-opacity="1"><g transform="translate(198.224397, 82.315541)"><g/></g></g></svg>