<svg viewBox="6.30003 113.99970000000002 371.7 117" version="1.0" preserveAspectRatio="xMidYMid meet" zoomAndPan="magnify" xmlns:xlink="http://www.w3.org/1999/xlink" xmlns="http://www.w3.org/2000/svg" style="max-height: 500px" width="371.7" height="117"><defs><g/><clipPath id="fdbbb903fc"><path clip-rule="nonzero" d="M 11.5 138.757812 L 107 138.757812 L 107 209.257812 L 11.5 209.257812 Z M 11.5 138.757812"/></clipPath><clipPath id="c22a67e942"><path clip-rule="nonzero" d="M 82 138.757812 L 147 138.757812 L 147 209.257812 L 82 209.257812 Z M 82 138.757812"/></clipPath><clipPath id="d266cec6f0"><rect height="60" y="0" width="710" x="0"/></clipPath></defs><rect fill-opacity="1" height="449.999989" y="-37.499999" fill="#ffffff" width="450" x="-37.5"/><rect fill-opacity="1" height="449.999989" y="-37.499999" fill="#ffffff" width="450" x="-37.5"/><g clip-path="url(#fdbbb903fc)"><path fill-rule="nonzero" fill-opacity="1" d="M 60.683594 138.757812 L 11.523438 209.367188 L 62.59375 209.367188 L 77.441406 188.039062 L 72.515625 180.125 L 58.121094 200.800781 L 27.925781 200.800781 L 60.414062 154.136719 L 96.03125 209.367188 L 106.398438 209.367188 Z M 60.683594 138.757812" fill="#004aad"/></g><g clip-path="url(#c22a67e942)"><path fill-rule="nonzero" fill-opacity="1" d="M 101.3125 138.757812 L 82.9375 165.15625 L 87.953125 172.9375 L 101.046875 154.136719 L 136.695312 209.367188 L 146.902344 209.367188 Z M 101.3125 138.757812" fill="#004aad"/></g><g fill-opacity="1" fill="#224173"><g transform="translate(136.094805, 182.68739)"><g><path d="M 19.953125 -28.84375 C 22.328125 -28.84375 24.039062 -28.09375 25.09375 -26.59375 C 26.125 -25.195312 26.640625 -23.085938 26.640625 -20.265625 L 26.640625 -20.46875 C 26.640625 -17.695312 26.125 -15.585938 25.09375 -14.140625 C 24.039062 -12.671875 22.328125 -11.9375 19.953125 -11.9375 L 7.984375 -11.90625 L 7.984375 -1.1875 C 7.984375 -0.65625 7.851562 -0.316406 7.59375 -0.171875 C 7.332031 -0.0351562 7.132812 0.03125 7 0.03125 L 3.78125 0.03125 C 3.632812 0.03125 3.429688 -0.0351562 3.171875 -0.171875 C 2.921875 -0.316406 2.796875 -0.65625 2.796875 -1.1875 L 2.796875 -15.890625 C 2.796875 -16.421875 2.921875 -16.75 3.171875 -16.875 C 3.429688 -17.007812 3.632812 -17.078125 3.78125 -17.078125 L 19.046875 -17.078125 C 19.929688 -17.078125 20.546875 -17.332031 20.890625 -17.84375 C 21.265625 -18.363281 21.453125 -19.207031 21.453125 -20.375 C 21.453125 -21.539062 21.265625 -22.378906 20.890625 -22.890625 C 20.546875 -23.398438 19.929688 -23.65625 19.046875 -23.65625 L 3.78125 -23.65625 C 3.632812 -23.65625 3.429688 -23.71875 3.171875 -23.84375 C 2.921875 -23.976562 2.796875 -24.3125 2.796875 -24.84375 L 2.796875 -27.609375 C 2.796875 -28.171875 2.921875 -28.515625 3.171875 -28.640625 C 3.429688 -28.773438 3.632812 -28.84375 3.78125 -28.84375 Z M 19.953125 -28.84375"/></g></g></g><g fill-opacity="1" fill="#224173"><g transform="translate(167.272766, 182.68739)"><g><path d="M 26.671875 -20.46875 L 26.671875 -20.265625 C 26.671875 -20.285156 26.671875 -20.300781 26.671875 -20.3125 C 26.671875 -20.320312 26.671875 -20.34375 26.671875 -20.375 C 26.671875 -20.394531 26.671875 -20.410156 26.671875 -20.421875 C 26.671875 -20.429688 26.671875 -20.445312 26.671875 -20.46875 Z M 27.328125 -1.5 C 27.472656 -1.3125 27.519531 -1.035156 27.46875 -0.671875 C 27.40625 -0.203125 27.140625 0.03125 26.671875 0.03125 L 22.8125 0.03125 C 22.507812 0.03125 22.265625 -0.0351562 22.078125 -0.171875 C 22.015625 -0.222656 21.953125 -0.296875 21.890625 -0.390625 C 21.835938 -0.484375 21.773438 -0.578125 21.703125 -0.671875 L 15.359375 -11.90625 L 7.984375 -11.90625 L 7.984375 -1.1875 C 7.984375 -0.65625 7.859375 -0.316406 7.609375 -0.171875 C 7.367188 -0.0351562 7.164062 0.03125 7 0.03125 L 3.8125 0.03125 C 3.644531 0.03125 3.429688 -0.0351562 3.171875 -0.171875 C 2.921875 -0.316406 2.796875 -0.65625 2.796875 -1.1875 L 2.796875 -15.890625 C 2.796875 -16.421875 2.921875 -16.75 3.171875 -16.875 C 3.429688 -17.007812 3.644531 -17.078125 3.8125 -17.078125 L 19.046875 -17.078125 C 19.929688 -17.078125 20.546875 -17.332031 20.890625 -17.84375 C 21.265625 -18.363281 21.453125 -19.207031 21.453125 -20.375 C 21.453125 -21.539062 21.265625 -22.378906 20.890625 -22.890625 C 20.546875 -23.398438 19.929688 -23.65625 19.046875 -23.65625 L 3.8125 -23.65625 C 3.644531 -23.65625 3.429688 -23.71875 3.171875 -23.84375 C 2.921875 -23.976562 2.796875 -24.3125 2.796875 -24.84375 L 2.796875 -27.609375 C 2.796875 -28.171875 2.921875 -28.515625 3.171875 -28.640625 C 3.429688 -28.773438 3.644531 -28.84375 3.8125 -28.84375 L 19.953125 -28.84375 C 22.359375 -28.84375 24.082031 -28.09375 25.125 -26.59375 C 26.132812 -25.15625 26.648438 -23.082031 26.671875 -20.375 C 26.648438 -17.664062 26.132812 -15.585938 25.125 -14.140625 C 24.238281 -12.921875 22.929688 -12.207031 21.203125 -12 Z M 27.328125 -1.5"/></g></g></g><g fill-opacity="1" fill="#224173"><g transform="translate(199.325525, 182.68739)"><g><path d="M 26.640625 -26.28125 C 27.316406 -25.445312 27.816406 -24.304688 28.140625 -22.859375 C 28.273438 -22.179688 28.382812 -21.421875 28.46875 -20.578125 C 28.550781 -19.734375 28.59375 -18.835938 28.59375 -17.890625 L 28.59375 -10.953125 C 28.59375 -9.972656 28.550781 -9.0625 28.46875 -8.21875 C 28.382812 -7.382812 28.273438 -6.628906 28.140625 -5.953125 C 27.816406 -4.523438 27.316406 -3.367188 26.640625 -2.484375 C 25.910156 -1.578125 25 -0.9375 23.90625 -0.5625 C 22.78125 -0.164062 21.460938 0.03125 19.953125 0.03125 L 11.40625 0.03125 C 9.863281 0.03125 8.554688 -0.164062 7.484375 -0.5625 C 6.390625 -0.9375 5.484375 -1.585938 4.765625 -2.515625 C 4.054688 -3.429688 3.550781 -4.578125 3.25 -5.953125 C 3.09375 -6.628906 2.976562 -7.382812 2.90625 -8.21875 C 2.832031 -9.0625 2.796875 -9.972656 2.796875 -10.953125 L 2.796875 -17.890625 C 2.796875 -19.890625 2.945312 -21.546875 3.25 -22.859375 C 3.550781 -24.234375 4.054688 -25.375 4.765625 -26.28125 C 5.484375 -27.164062 6.390625 -27.820312 7.484375 -28.25 C 8.609375 -28.644531 9.914062 -28.84375 11.40625 -28.84375 L 19.953125 -28.84375 C 21.460938 -28.84375 22.78125 -28.644531 23.90625 -28.25 C 25 -27.820312 25.910156 -27.164062 26.640625 -26.28125 Z M 23.375 -18.484375 C 23.375 -18.992188 23.363281 -19.460938 23.34375 -19.890625 C 23.320312 -20.328125 23.273438 -20.71875 23.203125 -21.0625 C 23.109375 -21.71875 22.910156 -22.242188 22.609375 -22.640625 C 22.378906 -22.972656 22.03125 -23.234375 21.5625 -23.421875 C 21.320312 -23.484375 21.054688 -23.535156 20.765625 -23.578125 C 20.472656 -23.628906 20.144531 -23.65625 19.78125 -23.65625 L 11.578125 -23.65625 C 11.210938 -23.65625 10.882812 -23.628906 10.59375 -23.578125 C 10.300781 -23.535156 10.035156 -23.484375 9.796875 -23.421875 C 9.328125 -23.234375 8.976562 -22.972656 8.75 -22.640625 C 8.613281 -22.453125 8.5 -22.222656 8.40625 -21.953125 C 8.3125 -21.691406 8.226562 -21.394531 8.15625 -21.0625 C 8.101562 -20.71875 8.0625 -20.328125 8.03125 -19.890625 C 8 -19.460938 7.984375 -18.992188 7.984375 -18.484375 L 7.984375 -10.328125 C 7.984375 -9.816406 8 -9.34375 8.03125 -8.90625 C 8.0625 -8.476562 8.101562 -8.085938 8.15625 -7.734375 C 8.226562 -7.429688 8.3125 -7.144531 8.40625 -6.875 C 8.5 -6.601562 8.613281 -6.375 8.75 -6.1875 C 8.976562 -5.820312 9.328125 -5.566406 9.796875 -5.421875 C 10.222656 -5.265625 10.816406 -5.1875 11.578125 -5.1875 L 19.78125 -5.1875 C 20.550781 -5.1875 21.144531 -5.265625 21.5625 -5.421875 C 22.03125 -5.566406 22.378906 -5.820312 22.609375 -6.1875 C 22.890625 -6.539062 23.085938 -7.054688 23.203125 -7.734375 C 23.273438 -8.085938 23.320312 -8.476562 23.34375 -8.90625 C 23.363281 -9.34375 23.375 -9.816406 23.375 -10.328125 Z M 23.375 -18.484375"/></g></g></g><g fill-opacity="1" fill="#224173"><g transform="translate(232.463036, 182.68739)"><g><path d="M 19.3125 -14.9375 L 28.703125 -1.546875 C 28.910156 -1.265625 28.976562 -0.972656 28.90625 -0.671875 C 28.863281 -0.222656 28.609375 0 28.140625 0 L 24.078125 0 C 23.773438 0 23.53125 -0.046875 23.34375 -0.140625 C 23.25 -0.210938 23.160156 -0.296875 23.078125 -0.390625 C 22.992188 -0.484375 22.921875 -0.597656 22.859375 -0.734375 L 15.78125 -10.75 L 8.6875 -0.703125 C 8.539062 -0.460938 8.375 -0.285156 8.1875 -0.171875 C 8.050781 -0.0546875 7.804688 0 7.453125 0 L 3.609375 0 C 3.160156 0 2.898438 -0.222656 2.828125 -0.671875 C 2.785156 -1.015625 2.867188 -1.304688 3.078125 -1.546875 L 12.703125 -15.15625 L 4.03125 -27.296875 C 3.84375 -27.554688 3.769531 -27.847656 3.8125 -28.171875 C 3.863281 -28.617188 4.117188 -28.84375 4.578125 -28.84375 L 8.640625 -28.84375 C 8.941406 -28.84375 9.1875 -28.785156 9.375 -28.671875 C 9.582031 -28.503906 9.75 -28.328125 9.875 -28.140625 L 16.0625 -19.1875 L 22.640625 -28.140625 C 22.753906 -28.328125 22.921875 -28.503906 23.140625 -28.671875 C 23.328125 -28.785156 23.570312 -28.84375 23.875 -28.84375 L 27.71875 -28.84375 C 28.1875 -28.84375 28.457031 -28.617188 28.53125 -28.171875 C 28.570312 -27.828125 28.488281 -27.535156 28.28125 -27.296875 Z M 19.3125 -14.9375"/></g></g></g><g fill-opacity="1" fill="#224173"><g transform="translate(265.950472, 182.68739)"><g><path d="M 7 -28.84375 C 7.132812 -28.84375 7.332031 -28.769531 7.59375 -28.625 C 7.851562 -28.488281 7.984375 -28.148438 7.984375 -27.609375 L 7.984375 -1.1875 C 7.984375 -0.65625 7.851562 -0.316406 7.59375 -0.171875 C 7.332031 -0.0351562 7.132812 0.03125 7 0.03125 L 3.78125 0.03125 C 3.632812 0.03125 3.429688 -0.0351562 3.171875 -0.171875 C 2.921875 -0.316406 2.796875 -0.65625 2.796875 -1.1875 L 2.796875 -27.609375 C 2.796875 -28.148438 2.921875 -28.488281 3.171875 -28.625 C 3.429688 -28.769531 3.632812 -28.84375 3.78125 -28.84375 Z M 7 -28.84375"/></g></g></g><g fill-opacity="1" fill="#224173"><g transform="translate(278.477643, 182.68739)"><g><path d="M 32.03125 -28.84375 C 33.195312 -28.84375 33.988281 -28.46875 34.40625 -27.71875 C 34.78125 -27.0625 34.96875 -25.929688 34.96875 -24.328125 L 34.96875 -1.1875 C 34.96875 -0.65625 34.835938 -0.316406 34.578125 -0.171875 C 34.316406 -0.0351562 34.109375 0.03125 33.953125 0.03125 L 30.9375 0.03125 C 30.800781 0.03125 30.601562 -0.0351562 30.34375 -0.171875 C 30.082031 -0.316406 29.953125 -0.65625 29.953125 -1.1875 L 29.953125 -22.21875 C 29.953125 -22.25 29.953125 -22.269531 29.953125 -22.28125 C 29.953125 -22.289062 29.953125 -22.296875 29.953125 -22.296875 L 29.78125 -22.296875 C 29.738281 -22.296875 29.71875 -22.269531 29.71875 -22.21875 L 23.6875 -7.390625 C 23.457031 -6.660156 23.210938 -6.03125 22.953125 -5.5 C 22.835938 -5.238281 22.703125 -5.003906 22.546875 -4.796875 C 22.398438 -4.585938 22.257812 -4.390625 22.125 -4.203125 C 21.769531 -3.828125 21.394531 -3.570312 21 -3.4375 C 20.625 -3.289062 20.15625 -3.21875 19.59375 -3.21875 L 18.171875 -3.21875 C 17.648438 -3.21875 17.179688 -3.289062 16.765625 -3.4375 C 16.554688 -3.5 16.363281 -3.597656 16.1875 -3.734375 C 16.007812 -3.878906 15.828125 -4.035156 15.640625 -4.203125 C 15.335938 -4.578125 15.0625 -5.007812 14.8125 -5.5 C 14.570312 -6.03125 14.320312 -6.660156 14.0625 -7.390625 L 8.078125 -22.1875 C 8.054688 -22.257812 8.023438 -22.296875 7.984375 -22.296875 L 7.8125 -22.296875 C 7.8125 -22.296875 7.8125 -22.289062 7.8125 -22.28125 C 7.8125 -22.269531 7.8125 -22.25 7.8125 -22.21875 L 7.8125 -1.1875 C 7.8125 -0.65625 7.6875 -0.316406 7.4375 -0.171875 C 7.1875 -0.0351562 6.984375 0.03125 6.828125 0.03125 L 3.8125 0.03125 C 3.644531 0.03125 3.429688 -0.0351562 3.171875 -0.171875 C 2.921875 -0.316406 2.796875 -0.65625 2.796875 -1.1875 L 2.796875 -24.328125 C 2.796875 -25.929688 2.984375 -27.0625 3.359375 -27.71875 C 3.773438 -28.46875 4.582031 -28.84375 5.78125 -28.84375 L 9 -28.84375 C 9.507812 -28.84375 9.914062 -28.796875 10.21875 -28.703125 C 10.613281 -28.585938 10.941406 -28.410156 11.203125 -28.171875 C 11.316406 -28.035156 11.4375 -27.882812 11.5625 -27.71875 C 11.695312 -27.550781 11.8125 -27.363281 11.90625 -27.15625 C 12 -26.945312 12.097656 -26.707031 12.203125 -26.4375 C 12.304688 -26.175781 12.40625 -25.878906 12.5 -25.546875 L 18.65625 -10.078125 C 18.675781 -10.003906 18.695312 -9.960938 18.71875 -9.953125 C 18.75 -9.941406 18.765625 -9.9375 18.765625 -9.9375 L 19.109375 -9.9375 C 19.160156 -9.9375 19.195312 -9.984375 19.21875 -10.078125 L 25.40625 -25.546875 C 25.519531 -25.878906 25.625 -26.175781 25.71875 -26.4375 C 25.8125 -26.707031 25.90625 -26.945312 26 -27.15625 C 26.125 -27.363281 26.242188 -27.550781 26.359375 -27.71875 C 26.472656 -27.882812 26.585938 -28.035156 26.703125 -28.171875 C 26.984375 -28.429688 27.300781 -28.609375 27.65625 -28.703125 C 27.957031 -28.796875 28.363281 -28.84375 28.875 -28.84375 Z M 32.03125 -28.84375"/></g></g></g><g fill-opacity="1" fill="#224173"><g transform="translate(317.983721, 182.68739)"><g><path d="M 21.5625 -25.578125 L 31.390625 -1.328125 C 31.535156 -1.003906 31.570312 -0.722656 31.5 -0.484375 C 31.476562 -0.390625 31.414062 -0.28125 31.3125 -0.15625 C 31.207031 -0.03125 31.015625 0.03125 30.734375 0.03125 L 26.984375 0.03125 C 26.492188 0.03125 26.15625 -0.222656 25.96875 -0.734375 L 17.296875 -22.40625 C 17.265625 -22.445312 17.25 -22.46875 17.25 -22.46875 L 17.109375 -22.46875 C 17.109375 -22.46875 17.101562 -22.460938 17.09375 -22.453125 C 17.082031 -22.441406 17.066406 -22.410156 17.046875 -22.359375 L 12.5625 -11.03125 L 16.90625 -11.03125 C 17.394531 -11.03125 17.734375 -10.796875 17.921875 -10.328125 L 19.1875 -7.203125 C 19.300781 -6.804688 19.253906 -6.46875 19.046875 -6.1875 C 18.859375 -5.863281 18.550781 -5.703125 18.125 -5.703125 L 10.46875 -5.703125 L 8.46875 -0.703125 C 8.28125 -0.210938 7.953125 0.03125 7.484375 0.03125 L 3.640625 0.03125 C 3.359375 0.03125 3.164062 -0.03125 3.0625 -0.15625 C 2.957031 -0.28125 2.894531 -0.390625 2.875 -0.484375 C 2.800781 -0.703125 2.820312 -0.984375 2.9375 -1.328125 L 12.703125 -25.578125 C 13.171875 -26.816406 13.6875 -27.671875 14.25 -28.140625 C 14.3125 -28.179688 14.390625 -28.238281 14.484375 -28.3125 C 14.578125 -28.382812 14.671875 -28.441406 14.765625 -28.484375 C 15.460938 -28.972656 16.269531 -29.21875 17.1875 -29.21875 C 18.144531 -29.21875 19.007812 -28.925781 19.78125 -28.34375 C 20.550781 -27.757812 21.070312 -27.015625 21.34375 -26.109375 C 21.394531 -26.035156 21.4375 -25.953125 21.46875 -25.859375 C 21.507812 -25.765625 21.539062 -25.671875 21.5625 -25.578125 Z M 21.5625 -25.578125"/></g></g></g><g transform="matrix(1, 0, 0, 1, 140, 186)"><g clip-path="url(#d266cec6f0)"><g fill-opacity="1" fill="#224173"><g transform="translate(1.32687, 8.610007)"><g><path d="M 4.078125 -5.53125 C 4.390625 -5.53125 4.675781 -5.453125 4.9375 -5.296875 C 5.207031 -5.148438 5.421875 -4.945312 5.578125 -4.6875 C 5.734375 -4.4375 5.8125 -4.148438 5.8125 -3.828125 C 5.8125 -3.503906 5.726562 -3.207031 5.5625 -2.9375 C 5.394531 -2.664062 5.171875 -2.453125 4.890625 -2.296875 C 4.609375 -2.148438 4.304688 -2.078125 3.984375 -2.078125 L 2.0625 -2.078125 L 2.0625 0 L 1.203125 0 L 1.203125 -5.53125 Z M 3.921875 -2.890625 C 4.097656 -2.890625 4.265625 -2.929688 4.421875 -3.015625 C 4.578125 -3.097656 4.695312 -3.210938 4.78125 -3.359375 C 4.875 -3.503906 4.921875 -3.660156 4.921875 -3.828125 C 4.921875 -3.992188 4.875 -4.140625 4.78125 -4.265625 C 4.695312 -4.398438 4.578125 -4.507812 4.421875 -4.59375 C 4.265625 -4.675781 4.097656 -4.71875 3.921875 -4.71875 L 2.0625 -4.71875 L 2.0625 -2.890625 Z M 3.921875 -2.890625"/></g></g></g><g fill-opacity="1" fill="#224173"><g transform="translate(10.57784, 8.610007)"><g><path d="M 5.890625 -3.8125 C 5.890625 -3.4375 5.773438 -3.097656 5.546875 -2.796875 C 5.316406 -2.503906 5.03125 -2.296875 4.6875 -2.171875 L 6.1875 0.015625 L 5.125 0 L 3.71875 -2.0625 L 2.0625 -2.0625 L 2.0625 0 L 1.203125 0 L 1.203125 -5.53125 L 4.125 -5.53125 C 4.425781 -5.53125 4.710938 -5.457031 4.984375 -5.3125 C 5.253906 -5.164062 5.472656 -4.960938 5.640625 -4.703125 C 5.804688 -4.441406 5.890625 -4.144531 5.890625 -3.8125 Z M 3.90625 -4.71875 L 2.0625 -4.71875 L 2.0625 -2.875 L 4 -2.875 C 4.1875 -2.875 4.351562 -2.914062 4.5 -3 C 4.65625 -3.09375 4.773438 -3.207031 4.859375 -3.34375 C 4.953125 -3.488281 5 -3.644531 5 -3.8125 C 5 -3.988281 4.945312 -4.144531 4.84375 -4.28125 C 4.75 -4.414062 4.617188 -4.519531 4.453125 -4.59375 C 4.285156 -4.675781 4.101562 -4.71875 3.90625 -4.71875 Z M 3.90625 -4.71875"/></g></g></g><g fill-opacity="1" fill="#224173"><g transform="translate(20.294907, 8.610007)"><g><path d="M 7.015625 -2.765625 C 7.015625 -2.367188 6.9375 -1.992188 6.78125 -1.640625 C 6.632812 -1.296875 6.421875 -0.992188 6.140625 -0.734375 C 5.859375 -0.484375 5.523438 -0.285156 5.140625 -0.140625 C 4.765625 0.00390625 4.347656 0.078125 3.890625 0.078125 C 3.441406 0.078125 3.023438 0.00390625 2.640625 -0.140625 C 2.265625 -0.285156 1.9375 -0.484375 1.65625 -0.734375 C 1.375 -0.992188 1.15625 -1.296875 1 -1.640625 C 0.851562 -1.992188 0.78125 -2.367188 0.78125 -2.765625 C 0.78125 -3.171875 0.851562 -3.546875 1 -3.890625 C 1.15625 -4.234375 1.375 -4.53125 1.65625 -4.78125 C 1.9375 -5.039062 2.265625 -5.242188 2.640625 -5.390625 C 3.023438 -5.535156 3.441406 -5.609375 3.890625 -5.609375 C 4.347656 -5.609375 4.765625 -5.535156 5.140625 -5.390625 C 5.523438 -5.242188 5.859375 -5.039062 6.140625 -4.78125 C 6.421875 -4.53125 6.632812 -4.234375 6.78125 -3.890625 C 6.9375 -3.546875 7.015625 -3.171875 7.015625 -2.765625 Z M 6.15625 -2.765625 C 6.15625 -3.148438 6.054688 -3.492188 5.859375 -3.796875 C 5.671875 -4.097656 5.40625 -4.335938 5.0625 -4.515625 C 4.71875 -4.691406 4.328125 -4.78125 3.890625 -4.78125 C 3.453125 -4.78125 3.0625 -4.691406 2.71875 -4.515625 C 2.382812 -4.335938 2.125 -4.097656 1.9375 -3.796875 C 1.75 -3.492188 1.65625 -3.148438 1.65625 -2.765625 C 1.65625 -2.378906 1.75 -2.035156 1.9375 -1.734375 C 2.125 -1.429688 2.382812 -1.191406 2.71875 -1.015625 C 3.0625 -0.835938 3.453125 -0.75 3.890625 -0.75 C 4.328125 -0.75 4.71875 -0.835938 5.0625 -1.015625 C 5.40625 -1.191406 5.671875 -1.429688 5.859375 -1.734375 C 6.054688 -2.046875 6.15625 -2.390625 6.15625 -2.765625 Z M 6.15625 -2.765625"/></g></g></g><g fill-opacity="1" fill="#224173"><g transform="translate(30.722986, 8.610007)"><g><path d="M 0.53125 0 L 2.828125 -2.828125 L 0.578125 -5.53125 L 1.703125 -5.53125 L 3.484375 -3.359375 L 5.125 -5.53125 L 6.203125 -5.53125 L 3.96875 -2.75 L 6.28125 0 L 5.140625 0 L 3.34375 -2.21875 L 1.609375 0 Z M 0.53125 0"/></g></g></g><g fill-opacity="1" fill="#224173"><g transform="translate(40.163553, 8.610007)"><g><path d="M 4.515625 0 L 1.171875 0 L 1.171875 -0.828125 L 2.40625 -0.828125 L 2.40625 -4.71875 L 1.171875 -4.71875 L 1.171875 -5.53125 L 4.515625 -5.53125 L 4.515625 -4.71875 L 3.265625 -4.71875 L 3.265625 -0.828125 L 4.515625 -0.828125 Z M 4.515625 0"/></g></g></g><g fill-opacity="1" fill="#224173"><g transform="translate(48.474415, 8.610007)"><g><path d="M 2.046875 -5.53125 L 4.203125 -2.578125 L 6.390625 -5.53125 L 7.203125 -5.53125 L 7.203125 0 L 6.359375 0 L 6.359375 -2.3125 C 6.359375 -2.65625 6.363281 -2.976562 6.375 -3.28125 C 6.382812 -3.59375 6.40625 -3.898438 6.4375 -4.203125 L 4.453125 -1.59375 L 3.9375 -1.59375 L 1.96875 -4.203125 C 2 -3.890625 2.019531 -3.582031 2.03125 -3.28125 C 2.050781 -2.976562 2.0625 -2.65625 2.0625 -2.3125 L 2.0625 0 L 1.203125 0 L 1.203125 -5.53125 Z M 2.046875 -5.53125"/></g></g></g><g fill-opacity="1" fill="#224173"><g transform="translate(59.510804, 8.610007)"><g><path d="M 4.515625 0 L 1.171875 0 L 1.171875 -0.828125 L 2.40625 -0.828125 L 2.40625 -4.71875 L 1.171875 -4.71875 L 1.171875 -5.53125 L 4.515625 -5.53125 L 4.515625 -4.71875 L 3.265625 -4.71875 L 3.265625 -0.828125 L 4.515625 -0.828125 Z M 4.515625 0"/></g></g></g><g fill-opacity="1" fill="#224173"><g transform="translate(67.821665, 8.610007)"><g><path d="M 2.5 0 L 2.5 -4.71875 L 0.609375 -4.71875 L 0.609375 -5.53125 L 5.3125 -5.53125 L 5.3125 -4.71875 L 3.359375 -4.71875 L 3.359375 0 Z M 2.5 0"/></g></g></g><g fill-opacity="1" fill="#224173"><g transform="translate(76.369527, 8.610007)"><g><path d="M 6.296875 -5.53125 L 3.875 -2.25 L 3.875 0 L 3.015625 0 L 3.015625 -2.203125 L 0.4375 -5.53125 L 1.5625 -5.53125 L 3.46875 -3 L 5.265625 -5.53125 Z M 6.296875 -5.53125"/></g></g></g><g fill-opacity="1" fill="#224173"><g transform="translate(85.731097, 8.610007)"><g/></g></g><g fill-opacity="1" fill="#224173"><g transform="translate(91.608731, 8.610007)"><g><path d="M 2.5 0 L 2.5 -4.71875 L 0.609375 -4.71875 L 0.609375 -5.53125 L 5.3125 -5.53125 L 5.3125 -4.71875 L 3.359375 -4.71875 L 3.359375 0 Z M 2.5 0"/></g></g></g><g fill-opacity="1" fill="#224173"><g transform="translate(100.156594, 8.610007)"><g><path d="M 7.015625 -2.765625 C 7.015625 -2.367188 6.9375 -1.992188 6.78125 -1.640625 C 6.632812 -1.296875 6.421875 -0.992188 6.140625 -0.734375 C 5.859375 -0.484375 5.523438 -0.285156 5.140625 -0.140625 C 4.765625 0.00390625 4.347656 0.078125 3.890625 0.078125 C 3.441406 0.078125 3.023438 0.00390625 2.640625 -0.140625 C 2.265625 -0.285156 1.9375 -0.484375 1.65625 -0.734375 C 1.375 -0.992188 1.15625 -1.296875 1 -1.640625 C 0.851562 -1.992188 0.78125 -2.367188 0.78125 -2.765625 C 0.78125 -3.171875 0.851562 -3.546875 1 -3.890625 C 1.15625 -4.234375 1.375 -4.53125 1.65625 -4.78125 C 1.9375 -5.039062 2.265625 -5.242188 2.640625 -5.390625 C 3.023438 -5.535156 3.441406 -5.609375 3.890625 -5.609375 C 4.347656 -5.609375 4.765625 -5.535156 5.140625 -5.390625 C 5.523438 -5.242188 5.859375 -5.039062 6.140625 -4.78125 C 6.421875 -4.53125 6.632812 -4.234375 6.78125 -3.890625 C 6.9375 -3.546875 7.015625 -3.171875 7.015625 -2.765625 Z M 6.15625 -2.765625 C 6.15625 -3.148438 6.054688 -3.492188 5.859375 -3.796875 C 5.671875 -4.097656 5.40625 -4.335938 5.0625 -4.515625 C 4.71875 -4.691406 4.328125 -4.78125 3.890625 -4.78125 C 3.453125 -4.78125 3.0625 -4.691406 2.71875 -4.515625 C 2.382812 -4.335938 2.125 -4.097656 1.9375 -3.796875 C 1.75 -3.492188 1.65625 -3.148438 1.65625 -2.765625 C 1.65625 -2.378906 1.75 -2.035156 1.9375 -1.734375 C 2.125 -1.429688 2.382812 -1.191406 2.71875 -1.015625 C 3.0625 -0.835938 3.453125 -0.75 3.890625 -0.75 C 4.328125 -0.75 4.71875 -0.835938 5.0625 -1.015625 C 5.40625 -1.191406 5.671875 -1.429688 5.859375 -1.734375 C 6.054688 -2.046875 6.15625 -2.390625 6.15625 -2.765625 Z M 6.15625 -2.765625"/></g></g></g><g fill-opacity="1" fill="#224173"><g transform="translate(110.584674, 8.610007)"><g/></g></g><g fill-opacity="1" fill="#224173"><g transform="translate(116.462308, 8.610007)"><g><path d="M 1.203125 -5.53125 L 5.390625 -5.53125 L 5.390625 -4.71875 L 2.0625 -4.71875 L 2.0625 -3.25 L 4.953125 -3.25 L 4.953125 -2.421875 L 2.0625 -2.421875 L 2.0625 -0.828125 L 5.390625 -0.828125 L 5.390625 0 L 1.203125 0 Z M 1.203125 -5.53125"/></g></g></g><g fill-opacity="1" fill="#224173"><g transform="translate(125.50787, 8.610007)"><g><path d="M 0.53125 0 L 2.828125 -2.828125 L 0.578125 -5.53125 L 1.703125 -5.53125 L 3.484375 -3.359375 L 5.125 -5.53125 L 6.203125 -5.53125 L 3.96875 -2.75 L 6.28125 0 L 5.140625 0 L 3.34375 -2.21875 L 1.609375 0 Z M 0.53125 0"/></g></g></g><g fill-opacity="1" fill="#224173"><g transform="translate(134.948436, 8.610007)"><g><path d="M 6.09375 -0.78125 C 5.957031 -0.644531 5.769531 -0.507812 5.53125 -0.375 C 5.300781 -0.25 5.035156 -0.140625 4.734375 -0.046875 C 4.429688 0.0351562 4.113281 0.078125 3.78125 0.078125 C 3.351562 0.078125 2.957031 0.0078125 2.59375 -0.125 C 2.238281 -0.257812 1.921875 -0.445312 1.640625 -0.6875 C 1.367188 -0.9375 1.15625 -1.238281 1 -1.59375 C 0.851562 -1.945312 0.78125 -2.335938 0.78125 -2.765625 C 0.78125 -3.171875 0.859375 -3.546875 1.015625 -3.890625 C 1.179688 -4.234375 1.40625 -4.53125 1.6875 -4.78125 C 1.96875 -5.03125 2.285156 -5.222656 2.640625 -5.359375 C 3.003906 -5.503906 3.390625 -5.578125 3.796875 -5.578125 C 4.140625 -5.578125 4.460938 -5.53125 4.765625 -5.4375 C 5.066406 -5.351562 5.335938 -5.238281 5.578125 -5.09375 C 5.816406 -4.945312 6.007812 -4.800781 6.15625 -4.65625 L 5.625 -3.96875 C 5.375 -4.1875 5.09375 -4.367188 4.78125 -4.515625 C 4.476562 -4.660156 4.132812 -4.734375 3.75 -4.734375 C 3.488281 -4.734375 3.226562 -4.6875 2.96875 -4.59375 C 2.71875 -4.507812 2.492188 -4.378906 2.296875 -4.203125 C 2.109375 -4.035156 1.953125 -3.828125 1.828125 -3.578125 C 1.710938 -3.335938 1.65625 -3.066406 1.65625 -2.765625 C 1.65625 -2.328125 1.757812 -1.957031 1.96875 -1.65625 C 2.175781 -1.351562 2.445312 -1.128906 2.78125 -0.984375 C 3.113281 -0.835938 3.476562 -0.765625 3.875 -0.765625 C 4.144531 -0.765625 4.390625 -0.800781 4.609375 -0.875 C 4.835938 -0.945312 5.035156 -1.035156 5.203125 -1.140625 C 5.378906 -1.253906 5.535156 -1.367188 5.671875 -1.484375 Z M 6.09375 -0.78125"/></g></g></g><g fill-opacity="1" fill="#224173"><g transform="translate(144.46801, 8.610007)"><g><path d="M 1.203125 -5.53125 L 5.390625 -5.53125 L 5.390625 -4.71875 L 2.0625 -4.71875 L 2.0625 -3.25 L 4.953125 -3.25 L 4.953125 -2.421875 L 2.0625 -2.421875 L 2.0625 -0.828125 L 5.390625 -0.828125 L 5.390625 0 L 1.203125 0 Z M 1.203125 -5.53125"/></g></g></g><g fill-opacity="1" fill="#224173"><g transform="translate(153.513572, 8.610007)"><g><path d="M 5.359375 -0.828125 L 5.359375 0 L 1.203125 0 L 1.203125 -5.53125 L 2.0625 -5.53125 L 2.0625 -0.828125 Z M 5.359375 -0.828125"/></g></g></g><g fill-opacity="1" fill="#224173"><g transform="translate(162.385338, 8.610007)"><g><path d="M 5.359375 -0.828125 L 5.359375 0 L 1.203125 0 L 1.203125 -5.53125 L 2.0625 -5.53125 L 2.0625 -0.828125 Z M 5.359375 -0.828125"/></g></g></g><g fill-opacity="1" fill="#224173"><g transform="translate(171.257115, 8.610007)"><g><path d="M 1.203125 -5.53125 L 5.390625 -5.53125 L 5.390625 -4.71875 L 2.0625 -4.71875 L 2.0625 -3.25 L 4.953125 -3.25 L 4.953125 -2.421875 L 2.0625 -2.421875 L 2.0625 -0.828125 L 5.390625 -0.828125 L 5.390625 0 L 1.203125 0 Z M 1.203125 -5.53125"/></g></g></g><g fill-opacity="1" fill="#224173"><g transform="translate(180.302676, 8.610007)"><g><path d="M 5.875 -5.53125 L 6.734375 -5.53125 L 6.734375 0 L 5.890625 0 L 1.90625 -4.3125 C 1.9375 -3.96875 1.96875 -3.628906 2 -3.296875 C 2.039062 -2.972656 2.0625 -2.640625 2.0625 -2.296875 L 2.0625 0 L 1.203125 0 L 1.203125 -5.53125 L 2.015625 -5.53125 L 6.015625 -1.109375 C 5.972656 -1.378906 5.941406 -1.660156 5.921875 -1.953125 C 5.898438 -2.253906 5.882812 -2.554688 5.875 -2.859375 C 5.875 -3.160156 5.875 -3.445312 5.875 -3.71875 Z M 5.875 -5.53125"/></g></g></g><g fill-opacity="1" fill="#224173"><g transform="translate(190.857137, 8.610007)"><g><path d="M 6.09375 -0.78125 C 5.957031 -0.644531 5.769531 -0.507812 5.53125 -0.375 C 5.300781 -0.25 5.035156 -0.140625 4.734375 -0.046875 C 4.429688 0.0351562 4.113281 0.078125 3.78125 0.078125 C 3.351562 0.078125 2.957031 0.0078125 2.59375 -0.125 C 2.238281 -0.257812 1.921875 -0.445312 1.640625 -0.6875 C 1.367188 -0.9375 1.15625 -1.238281 1 -1.59375 C 0.851562 -1.945312 0.78125 -2.335938 0.78125 -2.765625 C 0.78125 -3.171875 0.859375 -3.546875 1.015625 -3.890625 C 1.179688 -4.234375 1.40625 -4.53125 1.6875 -4.78125 C 1.96875 -5.03125 2.285156 -5.222656 2.640625 -5.359375 C 3.003906 -5.503906 3.390625 -5.578125 3.796875 -5.578125 C 4.140625 -5.578125 4.460938 -5.53125 4.765625 -5.4375 C 5.066406 -5.351562 5.335938 -5.238281 5.578125 -5.09375 C 5.816406 -4.945312 6.007812 -4.800781 6.15625 -4.65625 L 5.625 -3.96875 C 5.375 -4.1875 5.09375 -4.367188 4.78125 -4.515625 C 4.476562 -4.660156 4.132812 -4.734375 3.75 -4.734375 C 3.488281 -4.734375 3.226562 -4.6875 2.96875 -4.59375 C 2.71875 -4.507812 2.492188 -4.378906 2.296875 -4.203125 C 2.109375 -4.035156 1.953125 -3.828125 1.828125 -3.578125 C 1.710938 -3.335938 1.65625 -3.066406 1.65625 -2.765625 C 1.65625 -2.328125 1.757812 -1.957031 1.96875 -1.65625 C 2.175781 -1.351562 2.445312 -1.128906 2.78125 -0.984375 C 3.113281 -0.835938 3.476562 -0.765625 3.875 -0.765625 C 4.144531 -0.765625 4.390625 -0.800781 4.609375 -0.875 C 4.835938 -0.945312 5.035156 -1.035156 5.203125 -1.140625 C 5.378906 -1.253906 5.535156 -1.367188 5.671875 -1.484375 Z M 6.09375 -0.78125"/></g></g></g><g fill-opacity="1" fill="#224173"><g transform="translate(200.376721, 8.610007)"><g><path d="M 1.203125 -5.53125 L 5.390625 -5.53125 L 5.390625 -4.71875 L 2.0625 -4.71875 L 2.0625 -3.25 L 4.953125 -3.25 L 4.953125 -2.421875 L 2.0625 -2.421875 L 2.0625 -0.828125 L 5.390625 -0.828125 L 5.390625 0 L 1.203125 0 Z M 1.203125 -5.53125"/></g></g></g></g></g></svg>